<svg xmlns="http://www.w3.org/2000/svg" viewBox="0 0 860 382" width="860" height="382" font-family="Nunito, 'Segoe UI', Helvetica, Arial, sans-serif" role="img" aria-label="Mod ayarları: ne kazanıyoruz, ne veriyoruz?"><title>Mod ayarları: ne kazanıyoruz, ne veriyoruz?</title><rect width="860" height="382" rx="14" fill="#fcfcfb" stroke="#e9e8e4"/><text x="20" y="34" font-size="18" font-weight="800" fill="#0b0b0b">Mod ayarları: ne kazanıyoruz, ne veriyoruz?</text><text x="20" y="55" font-size="13" fill="#52514e">Tüm personalar ilgili moda zorlanarak çalıştırıldı · koyu çubuk: üretimdeki ayar</text><text x="20" y="130" font-size="12.5" fill="#0b0b0b">Şaşırt · yenilik 0.35</text><text x="20" y="160" font-size="12.5" fill="#0b0b0b">Şaşırt · yenilik 0.30</text><text x="20" y="190" font-size="12.5" fill="#0b0b0b" font-weight="800">Şaşırt · yenilik 0.25</text><text x="20" y="220" font-size="12.5" fill="#0b0b0b">Şaşırt · yenilik 0.20</text><text x="20" y="250" font-size="12.5" fill="#0b0b0b">Sakin · keşif %0</text><text x="20" y="280" font-size="12.5" fill="#0b0b0b">Sakin · keşif %10</text><text x="20" y="310" font-size="12.5" fill="#0b0b0b" font-weight="800">Sakin · keşif %20</text><text x="20" y="340" font-size="12.5" fill="#0b0b0b">Sakin · keşif %30</text><text x="190" y="98" font-size="13" font-weight="800" fill="#0b0b0b">North-star / hafta</text><rect x="190" y="118" width="148" height="16" rx="4" fill="#e9e8e4" opacity="0.6"/><rect x="190" y="118" width="68.6" height="16" rx="4" fill="#2a78d6" opacity="0.72"><title>Şaşırt · yenilik 0.35 · North-star / hafta: 4.17</title></rect><text x="346" y="130" font-size="12.5" fill="#0b0b0b">4.17</text><rect x="190" y="148" width="148" height="16" rx="4" fill="#e9e8e4" opacity="0.6"/><rect x="190" y="148" width="73.7" height="16" rx="4" fill="#2a78d6" opacity="0.72"><title>Şaşırt · yenilik 0.30 · North-star / hafta: 4.48</title></rect><text x="346" y="160" font-size="12.5" fill="#0b0b0b">4.48</text><rect x="190" y="178" width="148" height="16" rx="4" fill="#e9e8e4" opacity="0.6"/><rect x="190" y="178" width="76.9" height="16" rx="4" fill="#2a78d6" opacity="1"><title>Şaşırt · yenilik 0.25 · North-star / hafta: 4.68</title></rect><text x="346" y="190" font-size="12.5" fill="#0b0b0b" font-weight="800">4.68</text><rect x="190" y="208" width="148" height="16" rx="4" fill="#e9e8e4" opacity="0.6"/><rect x="190" y="208" width="80.4" height="16" rx="4" fill="#2a78d6" opacity="0.72"><title>Şaşırt · yenilik 0.20 · North-star / hafta: 4.89</title></rect><text x="346" y="220" font-size="12.5" fill="#0b0b0b">4.89</text><rect x="190" y="238" width="148" height="16" rx="4" fill="#e9e8e4" opacity="0.6"/><rect x="190" y="238" width="130.3" height="16" rx="4" fill="#2a78d6" opacity="0.72"><title>Sakin · keşif %0 · North-star / hafta: 7.93</title></rect><text x="346" y="250" font-size="12.5" fill="#0b0b0b">7.93</text><rect x="190" y="268" width="148" height="16" rx="4" fill="#e9e8e4" opacity="0.6"/><rect x="190" y="268" width="128.5" height="16" rx="4" fill="#2a78d6" opacity="0.72"><title>Sakin · keşif %10 · North-star / hafta: 7.81</title></rect><text x="346" y="280" font-size="12.5" fill="#0b0b0b">7.81</text><rect x="190" y="298" width="148" height="16" rx="4" fill="#e9e8e4" opacity="0.6"/><rect x="190" y="298" width="124.8" height="16" rx="4" fill="#2a78d6" opacity="1"><title>Sakin · keşif %20 · North-star / hafta: 7.59</title></rect><text x="346" y="310" font-size="12.5" fill="#0b0b0b" font-weight="800">7.59</text><rect x="190" y="328" width="148" height="16" rx="4" fill="#e9e8e4" opacity="0.6"/><rect x="190" y="328" width="122.8" height="16" rx="4" fill="#2a78d6" opacity="0.72"><title>Sakin · keşif %30 · North-star / hafta: 7.47</title></rect><text x="346" y="340" font-size="12.5" fill="#0b0b0b">7.47</text><text x="416" y="98" font-size="13" font-weight="800" fill="#0b0b0b">Gizli ilgi keşfi</text><rect x="416" y="118" width="148" height="16" rx="4" fill="#e9e8e4" opacity="0.6"/><rect x="416" y="118" width="110.5" height="16" rx="4" fill="#2a78d6" opacity="0.72"><title>Şaşırt · yenilik 0.35 · Gizli ilgi keşfi: %75</title></rect><text x="572" y="130" font-size="12.5" fill="#0b0b0b">%75</text><rect x="416" y="148" width="148" height="16" rx="4" fill="#e9e8e4" opacity="0.6"/><rect x="416" y="148" width="110.5" height="16" rx="4" fill="#2a78d6" opacity="0.72"><title>Şaşırt · yenilik 0.30 · Gizli ilgi keşfi: %75</title></rect><text x="572" y="160" font-size="12.5" fill="#0b0b0b">%75</text><rect x="416" y="178" width="148" height="16" rx="4" fill="#e9e8e4" opacity="0.6"/><rect x="416" y="178" width="111" height="16" rx="4" fill="#2a78d6" opacity="1"><title>Şaşırt · yenilik 0.25 · Gizli ilgi keşfi: %75</title></rect><text x="572" y="190" font-size="12.5" fill="#0b0b0b" font-weight="800">%75</text><rect x="416" y="208" width="148" height="16" rx="4" fill="#e9e8e4" opacity="0.6"/><rect x="416" y="208" width="103.6" height="16" rx="4" fill="#2a78d6" opacity="0.72"><title>Şaşırt · yenilik 0.20 · Gizli ilgi keşfi: %70</title></rect><text x="572" y="220" font-size="12.5" fill="#0b0b0b">%70</text><rect x="416" y="238" width="148" height="16" rx="4" fill="#e9e8e4" opacity="0.6"/><rect x="416" y="238" width="64.6" height="16" rx="4" fill="#2a78d6" opacity="0.72"><title>Sakin · keşif %0 · Gizli ilgi keşfi: %44</title></rect><text x="572" y="250" font-size="12.5" fill="#0b0b0b">%44</text><rect x="416" y="268" width="148" height="16" rx="4" fill="#e9e8e4" opacity="0.6"/><rect x="416" y="268" width="68.1" height="16" rx="4" fill="#2a78d6" opacity="0.72"><title>Sakin · keşif %10 · Gizli ilgi keşfi: %46</title></rect><text x="572" y="280" font-size="12.5" fill="#0b0b0b">%46</text><rect x="416" y="298" width="148" height="16" rx="4" fill="#e9e8e4" opacity="0.6"/><rect x="416" y="298" width="77" height="16" rx="4" fill="#2a78d6" opacity="1"><title>Sakin · keşif %20 · Gizli ilgi keşfi: %52</title></rect><text x="572" y="310" font-size="12.5" fill="#0b0b0b" font-weight="800">%52</text><rect x="416" y="328" width="148" height="16" rx="4" fill="#e9e8e4" opacity="0.6"/><rect x="416" y="328" width="83.9" height="16" rx="4" fill="#2a78d6" opacity="0.72"><title>Sakin · keşif %30 · Gizli ilgi keşfi: %57</title></rect><text x="572" y="340" font-size="12.5" fill="#0b0b0b">%57</text><text x="642" y="98" font-size="13" font-weight="800" fill="#0b0b0b">İsabet</text><rect x="642" y="118" width="148" height="16" rx="4" fill="#e9e8e4" opacity="0.6"/><rect x="642" y="118" width="72.6" height="16" rx="4" fill="#2a78d6" opacity="0.72"><title>Şaşırt · yenilik 0.35 · İsabet: %49</title></rect><text x="798" y="130" font-size="12.5" fill="#0b0b0b">%49</text><rect x="642" y="148" width="148" height="16" rx="4" fill="#e9e8e4" opacity="0.6"/><rect x="642" y="148" width="77.2" height="16" rx="4" fill="#2a78d6" opacity="0.72"><title>Şaşırt · yenilik 0.30 · İsabet: %52</title></rect><text x="798" y="160" font-size="12.5" fill="#0b0b0b">%52</text><rect x="642" y="178" width="148" height="16" rx="4" fill="#e9e8e4" opacity="0.6"/><rect x="642" y="178" width="80.3" height="16" rx="4" fill="#2a78d6" opacity="1"><title>Şaşırt · yenilik 0.25 · İsabet: %54</title></rect><text x="798" y="190" font-size="12.5" fill="#0b0b0b" font-weight="800">%54</text><rect x="642" y="208" width="148" height="16" rx="4" fill="#e9e8e4" opacity="0.6"/><rect x="642" y="208" width="85" height="16" rx="4" fill="#2a78d6" opacity="0.72"><title>Şaşırt · yenilik 0.20 · İsabet: %57</title></rect><text x="798" y="220" font-size="12.5" fill="#0b0b0b">%57</text><rect x="642" y="238" width="148" height="16" rx="4" fill="#e9e8e4" opacity="0.6"/><rect x="642" y="238" width="132.3" height="16" rx="4" fill="#2a78d6" opacity="0.72"><title>Sakin · keşif %0 · İsabet: %89</title></rect><text x="798" y="250" font-size="12.5" fill="#0b0b0b">%89</text><rect x="642" y="268" width="148" height="16" rx="4" fill="#e9e8e4" opacity="0.6"/><rect x="642" y="268" width="130.3" height="16" rx="4" fill="#2a78d6" opacity="0.72"><title>Sakin · keşif %10 · İsabet: %88</title></rect><text x="798" y="280" font-size="12.5" fill="#0b0b0b">%88</text><rect x="642" y="298" width="148" height="16" rx="4" fill="#e9e8e4" opacity="0.6"/><rect x="642" y="298" width="127.6" height="16" rx="4" fill="#2a78d6" opacity="1"><title>Sakin · keşif %20 · İsabet: %86</title></rect><text x="798" y="310" font-size="12.5" fill="#0b0b0b" font-weight="800">%86</text><rect x="642" y="328" width="148" height="16" rx="4" fill="#e9e8e4" opacity="0.6"/><rect x="642" y="328" width="124.2" height="16" rx="4" fill="#2a78d6" opacity="0.72"><title>Sakin · keşif %30 · İsabet: %84</title></rect><text x="798" y="340" font-size="12.5" fill="#0b0b0b">%84</text></svg>