<svg xmlns="http://www.w3.org/2000/svg" viewBox="0 0 800 380" width="800" height="380" font-family="Nunito, 'Segoe UI', Helvetica, Arial, sans-serif" role="img" aria-label="Önerilerin isabeti zaman içinde"><title>Önerilerin isabeti zaman içinde</title><rect width="800" height="380" rx="14" fill="#fcfcfb" stroke="#e9e8e4"/><text x="20" y="34" font-size="18" font-weight="800" fill="#0b0b0b">Önerilerin isabeti zaman içinde</text><text x="20" y="55" font-size="13" fill="#52514e">Gerçek ilgisi ≥ 0,5 olan öneri payı · 160 sentetik kullanıcı · 3 günlük hareketli ortalama</text><rect x="58" y="70" width="14" height="4" rx="2" fill="#2a78d6"/><text x="78" y="76" font-size="13" fill="#52514e">Tam motor (A)</text><rect x="181" y="70" width="14" height="4" rx="2" fill="#eb6834"/><text x="201" y="76" font-size="13" fill="#52514e">Öğrenme kapalı (C)</text><rect x="340" y="70" width="14" height="4" rx="2" fill="#1baf7a"/><text x="360" y="76" font-size="13" fill="#52514e">Yalnızca ilgi (D)</text><line x1="58" x2="610" y1="330" y2="330" stroke="#e9e8e4" stroke-width="1"/><text x="50" y="334" font-size="12" fill="#52514e" text-anchor="end">%0</text><line x1="58" x2="610" y1="271.5" y2="271.5" stroke="#e9e8e4" stroke-width="1"/><text x="50" y="275.5" font-size="12" fill="#52514e" text-anchor="end">%25</text><line x1="58" x2="610" y1="213" y2="213" stroke="#e9e8e4" stroke-width="1"/><text x="50" y="217" font-size="12" fill="#52514e" text-anchor="end">%50</text><line x1="58" x2="610" y1="154.5" y2="154.5" stroke="#e9e8e4" stroke-width="1"/><text x="50" y="158.5" font-size="12" fill="#52514e" text-anchor="end">%75</text><line x1="58" x2="610" y1="96" y2="96" stroke="#e9e8e4" stroke-width="1"/><text x="50" y="100" font-size="12" fill="#52514e" text-anchor="end">%100</text><text x="58" y="350" font-size="12" fill="#52514e" text-anchor="middle">1</text><text x="134.1" y="350" font-size="12" fill="#52514e" text-anchor="middle">5</text><text x="229.3" y="350" font-size="12" fill="#52514e" text-anchor="middle">10</text><text x="324.5" y="350" font-size="12" fill="#52514e" text-anchor="middle">15</text><text x="419.7" y="350" font-size="12" fill="#52514e" text-anchor="middle">20</text><text x="514.8" y="350" font-size="12" fill="#52514e" text-anchor="middle">25</text><text x="610" y="350" font-size="12" fill="#52514e" text-anchor="middle">30</text><text x="334" y="370" font-size="12" fill="#52514e" text-anchor="middle">Gün</text><polyline points="58,116 77,127 96.1,135.3 115.1,144.1 134.1,149.1 153.2,147 172.2,152.2 191.2,155.5 210.3,159.2 229.3,156.1 248.3,156.3 267.4,155.5 286.4,158.7 305.4,154.2 324.5,154.2 343.5,157.6 362.6,163.6 381.6,167.5 400.6,166.4 419.7,164.1 438.7,162 457.7,161.2 476.8,161.5 495.8,163.1 514.8,163.1 533.9,163.3 552.9,165.6 571.9,166.2 591,166.9 610,164.9" fill="none" stroke="#2a78d6" stroke-width="2" stroke-linejoin="round" stroke-linecap="round"/><circle cx="58" cy="116" r="6" fill="transparent"><title>Tam motor (A) · gün 1: %91</title></circle><circle cx="77" cy="127" r="6" fill="transparent"><title>Tam motor (A) · gün 2: %87</title></circle><circle cx="96.1" cy="135.3" r="6" fill="transparent"><title>Tam motor (A) · gün 3: %83</title></circle><circle cx="115.1" cy="144.1" r="6" fill="transparent"><title>Tam motor (A) · gün 4: %79</title></circle><circle cx="134.1" cy="149.1" r="6" fill="transparent"><title>Tam motor (A) · gün 5: %77</title></circle><circle cx="153.2" cy="147" r="6" fill="transparent"><title>Tam motor (A) · gün 6: %78</title></circle><circle cx="172.2" cy="152.2" r="6" fill="transparent"><title>Tam motor (A) · gün 7: %76</title></circle><circle cx="191.2" cy="155.5" r="6" fill="transparent"><title>Tam motor (A) · gün 8: %75</title></circle><circle cx="210.3" cy="159.2" r="6" fill="transparent"><title>Tam motor (A) · gün 9: %73</title></circle><circle cx="229.3" cy="156.1" r="6" fill="transparent"><title>Tam motor (A) · gün 10: %74</title></circle><circle cx="248.3" cy="156.3" r="6" fill="transparent"><title>Tam motor (A) · gün 11: %74</title></circle><circle cx="267.4" cy="155.5" r="6" fill="transparent"><title>Tam motor (A) · gün 12: %75</title></circle><circle cx="286.4" cy="158.7" r="6" fill="transparent"><title>Tam motor (A) · gün 13: %73</title></circle><circle cx="305.4" cy="154.2" r="6" fill="transparent"><title>Tam motor (A) · gün 14: %75</title></circle><circle cx="324.5" cy="154.2" r="6" fill="transparent"><title>Tam motor (A) · gün 15: %75</title></circle><circle cx="343.5" cy="157.6" r="6" fill="transparent"><title>Tam motor (A) · gün 16: %74</title></circle><circle cx="362.6" cy="163.6" r="6" fill="transparent"><title>Tam motor (A) · gün 17: %71</title></circle><circle cx="381.6" cy="167.5" r="6" fill="transparent"><title>Tam motor (A) · gün 18: %69</title></circle><circle cx="400.6" cy="166.4" r="6" fill="transparent"><title>Tam motor (A) · gün 19: %70</title></circle><circle cx="419.7" cy="164.1" r="6" fill="transparent"><title>Tam motor (A) · gün 20: %71</title></circle><circle cx="438.7" cy="162" r="6" fill="transparent"><title>Tam motor (A) · gün 21: %72</title></circle><circle cx="457.7" cy="161.2" r="6" fill="transparent"><title>Tam motor (A) · gün 22: %72</title></circle><circle cx="476.8" cy="161.5" r="6" fill="transparent"><title>Tam motor (A) · gün 23: %72</title></circle><circle cx="495.8" cy="163.1" r="6" fill="transparent"><title>Tam motor (A) · gün 24: %71</title></circle><circle cx="514.8" cy="163.1" r="6" fill="transparent"><title>Tam motor (A) · gün 25: %71</title></circle><circle cx="533.9" cy="163.3" r="6" fill="transparent"><title>Tam motor (A) · gün 26: %71</title></circle><circle cx="552.9" cy="165.6" r="6" fill="transparent"><title>Tam motor (A) · gün 27: %70</title></circle><circle cx="571.9" cy="166.2" r="6" fill="transparent"><title>Tam motor (A) · gün 28: %70</title></circle><circle cx="591" cy="166.9" r="6" fill="transparent"><title>Tam motor (A) · gün 29: %70</title></circle><circle cx="610" cy="164.9" r="6" fill="transparent"><title>Tam motor (A) · gün 30: %71</title></circle><circle cx="610" cy="164.9" r="4" fill="#2a78d6" stroke="#fcfcfb" stroke-width="2"/><text x="622" y="168.9" font-size="13" fill="#0b0b0b"><tspan font-weight="800">%71</tspan> Tam motor (A)</text><polyline points="58,114.5 77,118.7 96.1,123.1 115.1,134 134.1,144.4 153.2,154.3 172.2,162.6 191.2,168.6 210.3,170.9 229.3,167.7 248.3,162.8 267.4,160.5 286.4,163 305.4,166.7 324.5,172.4 343.5,176.9 362.6,179.2 381.6,179.9 400.6,177.3 419.7,176 438.7,175.5 457.7,178.1 476.8,182.8 495.8,183.6 514.8,184.1 533.9,182.3 552.9,182 571.9,179.7 591,180.8 610,180.3" fill="none" stroke="#eb6834" stroke-width="2" stroke-linejoin="round" stroke-linecap="round"/><circle cx="58" cy="114.5" r="6" fill="transparent"><title>Öğrenme kapalı (C) · gün 1: %92</title></circle><circle cx="77" cy="118.7" r="6" fill="transparent"><title>Öğrenme kapalı (C) · gün 2: %90</title></circle><circle cx="96.1" cy="123.1" r="6" fill="transparent"><title>Öğrenme kapalı (C) · gün 3: %88</title></circle><circle cx="115.1" cy="134" r="6" fill="transparent"><title>Öğrenme kapalı (C) · gün 4: %84</title></circle><circle cx="134.1" cy="144.4" r="6" fill="transparent"><title>Öğrenme kapalı (C) · gün 5: %79</title></circle><circle cx="153.2" cy="154.3" r="6" fill="transparent"><title>Öğrenme kapalı (C) · gün 6: %75</title></circle><circle cx="172.2" cy="162.6" r="6" fill="transparent"><title>Öğrenme kapalı (C) · gün 7: %72</title></circle><circle cx="191.2" cy="168.6" r="6" fill="transparent"><title>Öğrenme kapalı (C) · gün 8: %69</title></circle><circle cx="210.3" cy="170.9" r="6" fill="transparent"><title>Öğrenme kapalı (C) · gün 9: %68</title></circle><circle cx="229.3" cy="167.7" r="6" fill="transparent"><title>Öğrenme kapalı (C) · gün 10: %69</title></circle><circle cx="248.3" cy="162.8" r="6" fill="transparent"><title>Öğrenme kapalı (C) · gün 11: %71</title></circle><circle cx="267.4" cy="160.5" r="6" fill="transparent"><title>Öğrenme kapalı (C) · gün 12: %72</title></circle><circle cx="286.4" cy="163" r="6" fill="transparent"><title>Öğrenme kapalı (C) · gün 13: %71</title></circle><circle cx="305.4" cy="166.7" r="6" fill="transparent"><title>Öğrenme kapalı (C) · gün 14: %70</title></circle><circle cx="324.5" cy="172.4" r="6" fill="transparent"><title>Öğrenme kapalı (C) · gün 15: %67</title></circle><circle cx="343.5" cy="176.9" r="6" fill="transparent"><title>Öğrenme kapalı (C) · gün 16: %65</title></circle><circle cx="362.6" cy="179.2" r="6" fill="transparent"><title>Öğrenme kapalı (C) · gün 17: %64</title></circle><circle cx="381.6" cy="179.9" r="6" fill="transparent"><title>Öğrenme kapalı (C) · gün 18: %64</title></circle><circle cx="400.6" cy="177.3" r="6" fill="transparent"><title>Öğrenme kapalı (C) · gün 19: %65</title></circle><circle cx="419.7" cy="176" r="6" fill="transparent"><title>Öğrenme kapalı (C) · gün 20: %66</title></circle><circle cx="438.7" cy="175.5" r="6" fill="transparent"><title>Öğrenme kapalı (C) · gün 21: %66</title></circle><circle cx="457.7" cy="178.1" r="6" fill="transparent"><title>Öğrenme kapalı (C) · gün 22: %65</title></circle><circle cx="476.8" cy="182.8" r="6" fill="transparent"><title>Öğrenme kapalı (C) · gün 23: %63</title></circle><circle cx="495.8" cy="183.6" r="6" fill="transparent"><title>Öğrenme kapalı (C) · gün 24: %63</title></circle><circle cx="514.8" cy="184.1" r="6" fill="transparent"><title>Öğrenme kapalı (C) · gün 25: %62</title></circle><circle cx="533.9" cy="182.3" r="6" fill="transparent"><title>Öğrenme kapalı (C) · gün 26: %63</title></circle><circle cx="552.9" cy="182" r="6" fill="transparent"><title>Öğrenme kapalı (C) · gün 27: %63</title></circle><circle cx="571.9" cy="179.7" r="6" fill="transparent"><title>Öğrenme kapalı (C) · gün 28: %64</title></circle><circle cx="591" cy="180.8" r="6" fill="transparent"><title>Öğrenme kapalı (C) · gün 29: %64</title></circle><circle cx="610" cy="180.3" r="6" fill="transparent"><title>Öğrenme kapalı (C) · gün 30: %64</title></circle><circle cx="610" cy="180.3" r="4" fill="#eb6834" stroke="#fcfcfb" stroke-width="2"/><text x="622" y="186.9" font-size="13" fill="#0b0b0b"><tspan font-weight="800">%64</tspan> Öğrenme kapalı (C)</text><polyline points="58,96 77,98.2 96.1,100.6 115.1,103 134.1,104.1 153.2,104 172.2,105.8 191.2,107.2 210.3,107.9 229.3,107.4 248.3,108 267.4,111 286.4,113.6 305.4,115.3 324.5,117.8 343.5,121.2 362.6,121.4 381.6,116.3 400.6,113.6 419.7,113.4 438.7,113.2 457.7,111.1 476.8,111.1 495.8,112.7 514.8,114.4 533.9,113.6 552.9,112.4 571.9,110 591,109.8 610,110.1" fill="none" stroke="#1baf7a" stroke-width="2" stroke-linejoin="round" stroke-linecap="round"/><circle cx="58" cy="96" r="6" fill="transparent"><title>Yalnızca ilgi (D) · gün 1: %100</title></circle><circle cx="77" cy="98.2" r="6" fill="transparent"><title>Yalnızca ilgi (D) · gün 2: %99</title></circle><circle cx="96.1" cy="100.6" r="6" fill="transparent"><title>Yalnızca ilgi (D) · gün 3: %98</title></circle><circle cx="115.1" cy="103" r="6" fill="transparent"><title>Yalnızca ilgi (D) · gün 4: %97</title></circle><circle cx="134.1" cy="104.1" r="6" fill="transparent"><title>Yalnızca ilgi (D) · gün 5: %97</title></circle><circle cx="153.2" cy="104" r="6" fill="transparent"><title>Yalnızca ilgi (D) · gün 6: %97</title></circle><circle cx="172.2" cy="105.8" r="6" fill="transparent"><title>Yalnızca ilgi (D) · gün 7: %96</title></circle><circle cx="191.2" cy="107.2" r="6" fill="transparent"><title>Yalnızca ilgi (D) · gün 8: %95</title></circle><circle cx="210.3" cy="107.9" r="6" fill="transparent"><title>Yalnızca ilgi (D) · gün 9: %95</title></circle><circle cx="229.3" cy="107.4" r="6" fill="transparent"><title>Yalnızca ilgi (D) · gün 10: %95</title></circle><circle cx="248.3" cy="108" r="6" fill="transparent"><title>Yalnızca ilgi (D) · gün 11: %95</title></circle><circle cx="267.4" cy="111" r="6" fill="transparent"><title>Yalnızca ilgi (D) · gün 12: %94</title></circle><circle cx="286.4" cy="113.6" r="6" fill="transparent"><title>Yalnızca ilgi (D) · gün 13: %93</title></circle><circle cx="305.4" cy="115.3" r="6" fill="transparent"><title>Yalnızca ilgi (D) · gün 14: %92</title></circle><circle cx="324.5" cy="117.8" r="6" fill="transparent"><title>Yalnızca ilgi (D) · gün 15: %91</title></circle><circle cx="343.5" cy="121.2" r="6" fill="transparent"><title>Yalnızca ilgi (D) · gün 16: %89</title></circle><circle cx="362.6" cy="121.4" r="6" fill="transparent"><title>Yalnızca ilgi (D) · gün 17: %89</title></circle><circle cx="381.6" cy="116.3" r="6" fill="transparent"><title>Yalnızca ilgi (D) · gün 18: %91</title></circle><circle cx="400.6" cy="113.6" r="6" fill="transparent"><title>Yalnızca ilgi (D) · gün 19: %93</title></circle><circle cx="419.7" cy="113.4" r="6" fill="transparent"><title>Yalnızca ilgi (D) · gün 20: %93</title></circle><circle cx="438.7" cy="113.2" r="6" fill="transparent"><title>Yalnızca ilgi (D) · gün 21: %93</title></circle><circle cx="457.7" cy="111.1" r="6" fill="transparent"><title>Yalnızca ilgi (D) · gün 22: %94</title></circle><circle cx="476.8" cy="111.1" r="6" fill="transparent"><title>Yalnızca ilgi (D) · gün 23: %94</title></circle><circle cx="495.8" cy="112.7" r="6" fill="transparent"><title>Yalnızca ilgi (D) · gün 24: %93</title></circle><circle cx="514.8" cy="114.4" r="6" fill="transparent"><title>Yalnızca ilgi (D) · gün 25: %92</title></circle><circle cx="533.9" cy="113.6" r="6" fill="transparent"><title>Yalnızca ilgi (D) · gün 26: %93</title></circle><circle cx="552.9" cy="112.4" r="6" fill="transparent"><title>Yalnızca ilgi (D) · gün 27: %93</title></circle><circle cx="571.9" cy="110" r="6" fill="transparent"><title>Yalnızca ilgi (D) · gün 28: %94</title></circle><circle cx="591" cy="109.8" r="6" fill="transparent"><title>Yalnızca ilgi (D) · gün 29: %94</title></circle><circle cx="610" cy="110.1" r="6" fill="transparent"><title>Yalnızca ilgi (D) · gün 30: %94</title></circle><circle cx="610" cy="110.1" r="4" fill="#1baf7a" stroke="#fcfcfb" stroke-width="2"/><text x="622" y="114.1" font-size="13" fill="#0b0b0b"><tspan font-weight="800">%94</tspan> Yalnızca ilgi (D)</text></svg>